<svg xmlns="http://www.w3.org/2000/svg" viewBox="0 0 974.25 972.62"><defs><style>.cls-1{fill:#f57c00;}</style></defs><title>Personal_Logo</title><g id="Layer_1" data-name="Layer 1"><path class="cls-1" d="M481.05,568.68H347.5v-96.4H481.05V444.53q0-50.31,16-88.88t45.62-64.9q29.63-26.33,72-39.74t94.52-13.4q16.47,0,31.75,1.18t29.86,3.05q14.58,1.89,29.39,4.24t30.81,5.17l-8.47,102.52Q804.59,350,782,347.18a435.2,435.2,0,0,0-53.14-2.82q-32.92,0-56,7.53T636.24,374a74.89,74.89,0,0,0-18.1,30.1q-5.89,17.87-5.88,40.44v27.75H795.67v96.4H612.26V981.11H481.05Z" transform="translate(-121 -122.97)"/><polygon class="cls-1" points="249.5 898.3 127.82 898.3 76.97 847.45 76.97 725.77 0 648.8 0 893 79.63 972.62 323.82 972.62 249.5 898.3"/><polygon class="cls-1" points="724.75 74.32 846.43 74.32 897.28 125.17 897.28 246.85 974.25 323.82 974.25 79.63 894.62 0 650.43 0 724.75 74.32"/></g></svg>